<svg xmlns="http://www.w3.org/2000/svg" viewBox="0 0 128 128"><path fill="#F90" d="M38.089 77.466l-11.4 4.896 10.559 4.514 12.241-4.514-11.4-4.896zm-17.138 6.12l-.382 22.034 16.679 7.345V90.089l-16.297-6.503zm34.276 0l-15.073 5.739V111.9l15.073-6.121V83.586zm29.2-22.08l-11.4 4.896 10.558 4.514 12.241-4.514-11.399-4.896zm-17.139 6.12l-.382 22.034 16.679 7.345V74.129l-16.297-6.503zm34.277 0l-15.073 5.739v22.575l15.073-6.121V67.626zm-60.025-39.2l-11.4 4.896 10.559 4.514 12.241-4.514L61.54 28.426zm-17.138 6.12l-.382 22.035 16.679 7.345V40.969L44.402 34.546zm34.276 0l-15.073 5.738v22.576l15.073-6.121V34.546z"/></svg>
