<svg xmlns="http://www.w3.org/2000/svg" viewBox="0 0 128 128"><path fill="#fff" d="M126.67 98.44c-4.56 1.16-7.38.05-9.91-3.75-5.68-8.51-11.95-16.63-18-24.9-.78-1.07-1.59-2.12-2.6-3.45C89 76 81.85 85.2 75.14 94.77c-2.4 3.42-4.92 4.91-9.4 3.7l26.92-36.13L67.6 29.71c4.31-.84 7.29-.41 9.93 3.45 5.83 8.52 12.26 16.63 18.67 25.21 6.45-8.55 12.8-16.67 18.8-25.11 2.41-3.42 5-4.72 9.33-3.46-3.28 4.35-6.49 8.63-9.72 12.88-4.36 5.73-8.85 11.38-13.08 17.21a5.84 5.84 0 0 0 .16 7.17c8.57 11.61 17 23.32 25.64 34.98l-.66.4zm-44.95-7.14c0 7.06-.06 13.65.03 20.24.03 2.01-.36 3.59-2.42 4.47-5.35 2.29-10.66 4.67-15.99 6.99-1.68.73-3.24.44-4.76-.33a455.48 455.48 0 0 1-15.75-7.12c-1.77-.84-2.55-2.01-2.53-4.04.1-14.34.06-28.67.06-43.01V66.4l-1.19-.26C29.37 73.8 19.61 81.15 12.77 92c-1.47 2.32-3.28 3.19-5.96 2.54l1.05-1.55c6.49-9.27 13.42-18.22 21.88-25.82.64-.58 1.29-1.67 1.2-2.44-.86-7.31-2.02-14.58-2.88-21.89-.15-1.25.36-2.82 1.1-3.84 5.51-7.63 11.2-15.14 16.87-22.64.31-.41.75-.73 1.53-1.47-1.76 6.5-3.39 12.56-5.08 18.59a8.75 8.75 0 0 0 .27 5.39C48.4 52.5 54.2 66 60.08 79.48a3.6 3.6 0 0 0 2.22 2.02c5.77 1.67 11.6 3.14 17.42 4.67l2-.87z"/></svg>
