<svg xmlns="http://www.w3.org/2000/svg" viewBox="0 0 128 128"><path fill="#2088FF" d="M64 0C28.654 0 0 28.654 0 64s28.654 64 64 64 64-28.654 64-64S99.346 0 64 0zm0 8c30.928 0 56 25.072 56 56s-25.072 56-56 56S8 94.928 8 64 33.072 8 64 8z"/><circle cx="40" cy="48" r="8" fill="#2088FF"/><circle cx="40" cy="80" r="8" fill="#2088FF"/><circle cx="88" cy="64" r="8" fill="#2088FF"/><path fill="#2088FF" d="M48 48h16v4H48zm0 28h16v4H48z"/><path fill="#2088FF" d="M64 48c8.837 0 16 7.163 16 16H76c0-6.627-5.373-12-12-12v-4zm0 32c8.837 0 16-7.163 16-16h-4c0 6.627-5.373 12-12 12v4z"/></svg>
