<svg xmlns="http://www.w3.org/2000/svg" viewBox="0 0 128 128"><path fill="#5E6AD2" d="M3.435 72.813a61.478 61.478 0 0 0 51.752 51.752L3.435 72.813zM1.478 63.81a63.787 63.787 0 0 0 2.912 15.78L62.41 21.57c-33.66-6.636-60.932 8.58-60.932 42.24zm9.09-28.404A63.898 63.898 0 0 0 1.08 55.19c.438 6.51 2.09 12.73 4.756 18.442l41.454-41.454c-12.254-5.028-24.572-3.2-36.722 3.228zm10.188-11.684a64.112 64.112 0 0 0-6.26 6.89c10.47-5.78 21.88-7.768 33.644-4.03L76.86 54.61c4.118-12.112 1.854-23.706-4.214-34.078a64.054 64.054 0 0 0-7.478-6.6L20.756 23.722zM64 0a63.782 63.782 0 0 0-30.358 7.646l86.712 86.712A63.782 63.782 0 0 0 128 64c0-35.346-28.654-64-64-64zm37.632 102.082L25.918 90.368a64.066 64.066 0 0 0 9.694 9.694l55.098 22.508a63.98 63.98 0 0 0 10.922-20.488zm-8.578 25.088A63.64 63.64 0 0 0 109.2 117.4l-35.028-35.028 19.882 44.798z"/></svg>
