<svg xmlns="http://www.w3.org/2000/svg" viewBox="0 0 128 128"><path fill="#336791" d="M93.809 92.112c.785-6.533.55-7.492 5.416-6.433l1.235.108c3.742.17 8.637-.602 11.514-1.938 6.108-2.833 9.736-7.527 3.73-6.293-13.703 2.818-14.837-1.713-14.837-1.713 14.645-21.738 20.766-49.378 15.496-56.119-14.364-18.374-39.222-9.67-39.637-9.44l-.134.024c-2.707-.544-5.747-.886-9.149-.946-6.19-.11-10.892 1.61-14.452 4.263 0 0-43.89-18.087-41.855 22.747.433 8.688 12.473 65.758 26.827 48.536 5.24-6.287 10.297-11.6 10.297-11.6 2.516 1.667 5.526 2.524 8.748 2.213l.249-.212c-.078.796-.044 1.575.098 2.497-3.757 4.199-2.653 4.936-10.166 6.482-7.602 1.566-3.136 4.355-.221 5.084 3.535.884 11.712 2.136 17.238-5.598l-.221.882c1.474 1.18 1.006 8.592 1.155 13.861.149 5.27.396 10.203 1.261 13.104.865 2.9 2.052 10.028 10.793 7.957 7.313-1.732 12.857-4.217 13.467-27.553z"/><path fill="#fff" d="M62.17 103.647c-.683.096-1.18-.005-1.553-.216.37-.38.724-.778 1.064-1.196 5.413 2.098 25.98-1.352 19.613-14.09-2.49-4.985-3.396-10.327-3.365-15.903a38.3 38.3 0 0 0-.295-4.47c-.106-.727.07-1.443.39-2.175 1.44 8.252 5.182 14.03 14.196 16.678 4.117 1.21 12.268.75 14.91-.51-4.71 4.91-14.518 5.535-18.098 3.9-2.36-1.077-4.097-3.18-5.424-5.63-.224 6.79-1.116 14.04-4.472 19.312-3.754 5.908-8.99 7.53-14.94 5.12-.753-.305-1.373-.656-2.026-1.02z"/><path fill="#fff" d="M85.273 65.354c-.347-.01-.697-.025-1.053-.026-5.282-.014-8.147 1.308-9.68 2.53-.123-3.59-.465-7.152-1.18-9.957 3.162-2.327 11.636-5.305 21.42-2.362 0 0-3.79 9.49-9.507 9.815zm-26.416-5.764c.116 7.267-.238 14.528-1.192 17.32-.954 2.79-3.09 6.454-4.853 8.09 0 0-8.82-3.675-12.387-18.01-1.47-5.914-.79-20.876 5.72-25.09 0 0 .24-2.1 3.68-3.63 3.597-1.597 6.504-.64 7.516.28-5.53 3.398-7.058 10.12-5.055 16.887 1.102 3.715 4.18 5.652 6.571 4.153z"/></svg>
