<svg xmlns="http://www.w3.org/2000/svg" viewBox="0 0 128 128"><path fill="#fff" d="M.113 93.829c.141.13 2.856 2.725 7.752 5.784a7.726 7.726 0 0 1 .263-1.617c.847-3.175 3.144-5.472 7.68-7.68 3.07-1.494 5.024-3.437 6.17-5.25H.294c-.096.384-.158.802-.18 1.258-.073 1.419.002 4.237-.001 7.505zM127.887 93.829c-.141.13-2.856 2.725-7.752 5.784a7.726 7.726 0 0 0-.263-1.617c-.847-3.175-3.144-5.472-7.68-7.68-3.07-1.494-5.024-3.437-6.17-5.25h21.684c.096.384.158.802.18 1.258.073 1.419-.002 4.237.001 7.505zM64 2C29.28 2 2 29.28 2 64c0 7.3 1.246 14.305 3.534 20.824h6.11C6.994 78.52 4.36 71.514 4.36 64 4.36 31.074 31.074 4.36 64 4.36S123.64 31.074 123.64 64c0 7.514-2.634 14.52-7.284 20.824h6.11A61.624 61.624 0 0 0 126 64C126 29.28 98.72 2 64 2zm0 11.754c-27.784 0-50.246 22.462-50.246 50.246 0 7.15 1.498 13.952 4.192 20.112l5.186-2.524c-2.328-5.398-3.618-11.342-3.618-17.588 0-24.558 19.928-44.486 44.486-44.486S108.486 39.442 108.486 64c0 6.246-1.29 12.19-3.618 17.588l5.186 2.524A50.016 50.016 0 0 0 114.246 64c0-27.784-22.462-50.246-50.246-50.246zM64 25.508c-21.264 0-38.492 17.228-38.492 38.492 0 6.706 1.716 13.02 4.732 18.516l5.3-2.58a32.562 32.562 0 0 1-4.272-15.936c0-18.038 14.694-32.732 32.732-32.732S96.732 45.962 96.732 64A32.562 32.562 0 0 1 92.46 79.936l5.3 2.58a38.272 38.272 0 0 0 4.732-18.516c0-21.264-17.228-38.492-38.492-38.492zM64 37.262c-14.746 0-26.738 11.992-26.738 26.738 0 6.236 2.14 11.974 5.722 16.518l5.336-2.598A20.744 20.744 0 0 1 43.022 64c0-11.52 9.458-20.978 20.978-20.978S84.978 52.48 84.978 64a20.744 20.744 0 0 1-5.298 13.92l5.336 2.598a26.534 26.534 0 0 0 5.722-16.518c0-14.746-11.992-26.738-26.738-26.738zM64 49.016A14.998 14.998 0 0 0 49.016 64c0 5.428 2.886 10.182 7.206 12.822l3.096-8.76a6.566 6.566 0 0 1-4.542-6.24A6.585 6.585 0 0 1 61.352 55.5l-1.68-4.756A14.898 14.898 0 0 0 64 49.016zm4.168 2.358L66.506 55.5a6.585 6.585 0 0 1 4.728 4.322l8.58-4.178a14.936 14.936 0 0 0-11.646-4.27zm13.588 7.592l-8.58 4.178a6.539 6.539 0 0 1-.874 4.856l5.372 2.614A14.89 14.89 0 0 0 81.756 58.966zM64.37 63.618a1.26 1.26 0 0 0-.952.484 1.281 1.281 0 0 0-.162 1.07l5.648 15.988c2.498-.592 4.77-1.72 6.696-3.254L64.852 63.84a1.261 1.261 0 0 0-.482-.222zM34.32 86.956a28.584 28.584 0 0 0 4.212 4.392c6.06-4.09 7.054-5.454 8.046-6.818-3.854-2.508-4.986-4.36-6.118-6.214l-6.14 8.64zm53.24-8.64c-1.132 1.854-2.264 3.706-6.118 6.214.992 1.364 1.986 2.728 8.046 6.818a28.584 28.584 0 0 0 4.212-4.392l-6.14-8.64zM43.47 95.33c5.71 3.7 12.482 5.786 19.53 5.786 7.048 0 13.82-2.086 19.53-5.786-5.502-5.062-6.348-6.07-7.194-7.078-3.558 2.746-8.006 4.382-12.836 4.382s-9.278-1.636-12.836-4.382c-.846 1.008-1.692 2.016-7.194 7.078z"/></svg>
